<?xml version="1.0" standalone="no"?>
<!DOCTYPE svg PUBLIC "-//W3C//DTD SVG 20010904//EN"
 "http://www.w3.org/TR/2001/REC-SVG-20010904/DTD/svg10.dtd">
<svg version="1.0" xmlns="http://www.w3.org/2000/svg"
 width="1024.000000pt" height="1024.000000pt" viewBox="0 0 1024.000000 1024.000000"
 preserveAspectRatio="xMidYMid meet">
<metadata>
Created by potrace 1.11, written by Peter Selinger 2001-2013
</metadata>
<g transform="translate(0.000000,1024.000000) scale(0.100000,-0.100000)"
fill="#000000" stroke="none">
<path d="M4640 9529 c-115 -15 -147 -20 -210 -36 -36 -8 -70 -19 -76 -24 -6
-5 -13 -7 -16 -4 -5 5 -135 -40 -152 -53 -6 -5 -32 -16 -59 -26 -26 -10 -53
-23 -60 -29 -7 -7 -34 -23 -60 -36 -26 -13 -47 -28 -47 -32 0 -5 -6 -9 -13 -9
-7 0 -22 -8 -33 -18 -10 -10 -35 -28 -54 -42 -169 -117 -366 -357 -468 -570
-41 -85 -116 -299 -108 -308 3 -2 -2 -22 -10 -45 -8 -22 -16 -71 -18 -108 -2
-37 -6 -71 -9 -76 -3 -4 -5 -808 -5 -1785 l0 -1778 -49 -57 c-26 -32 -53 -62
-59 -68 -35 -33 -154 -200 -154 -215 0 -5 -4 -10 -8 -10 -5 0 -14 -10 -20 -22
-6 -13 -25 -45 -42 -73 -31 -50 -120 -231 -120 -243 0 -4 -6 -19 -14 -34 -15
-28 -67 -182 -71 -208 -1 -8 -5 -22 -8 -30 -3 -8 -12 -42 -20 -75 -50 -205
-69 -496 -46 -700 5 -44 11 -102 14 -130 7 -65 59 -279 92 -375 43 -127 124
-302 179 -387 19 -28 34 -54 34 -58 0 -6 37 -62 92 -140 37 -52 201 -235 264
-293 43 -41 91 -85 105 -98 14 -13 31 -24 37 -24 7 0 12 -4 12 -9 0 -5 17 -20
38 -32 20 -13 42 -28 47 -35 34 -38 242 -154 426 -237 149 -67 436 -138 629
-155 115 -11 449 -5 464 7 7 6 15 8 18 6 19 -19 363 64 518 124 84 33 340 163
340 172 0 5 5 9 11 9 11 0 137 83 181 118 74 61 117 97 141 122 15 16 43 41
62 56 19 14 35 30 35 35 0 5 21 28 46 51 25 24 62 65 82 93 20 27 44 57 53 65
53 55 204 313 262 450 8 19 20 46 26 60 45 104 105 314 114 397 3 23 7 46 10
50 31 51 29 654 -2 736 -5 12 -9 25 -9 30 -2 49 -30 159 -82 317 -76 235 -269
559 -444 745 l-56 60 0 1802 c0 1066 -4 1804 -9 1807 -5 3 -7 14 -4 24 4 19
-20 154 -36 202 -5 14 -15 45 -22 70 -7 25 -16 50 -19 55 -4 6 -10 22 -14 37
-8 34 -62 152 -91 198 -119 189 -144 221 -280 355 -87 86 -226 194 -290 225
-16 8 -32 17 -35 20 -5 6 -113 58 -170 83 -61 27 -153 57 -158 52 -3 -3 -10 0
-17 5 -7 5 -25 12 -41 14 -16 2 -36 6 -44 9 -72 28 -364 43 -500 26z m284
-659 c39 -6 89 -16 111 -21 57 -14 202 -78 252 -111 23 -15 44 -28 47 -28 3 0
14 -8 24 -17 10 -10 45 -43 78 -74 74 -71 114 -116 114 -129 0 -5 5 -10 10
-10 6 0 10 -5 10 -11 0 -7 13 -33 29 -60 38 -61 88 -202 100 -282 21 -132 23
-278 23 -2052 l0 -1830 57 -52 c31 -29 59 -53 63 -53 8 0 20 -12 88 -90 30
-35 65 -74 78 -87 12 -13 22 -28 22 -33 0 -6 5 -10 10 -10 6 0 10 -5 10 -10 0
-6 16 -33 35 -61 41 -57 110 -193 148 -289 42 -107 54 -152 85 -322 16 -84 14
-355 -3 -453 -9 -49 -18 -101 -20 -115 -5 -30 -69 -221 -92 -270 -87 -195
-216 -372 -370 -510 -82 -73 -94 -83 -183 -142 -82 -54 -236 -138 -253 -138
-5 0 -23 -6 -40 -14 -89 -39 -262 -83 -357 -91 -36 -3 -81 -8 -100 -11 -48 -9
-199 -3 -290 10 -25 4 -58 9 -75 11 -16 2 -45 8 -62 14 -18 5 -33 8 -33 6 0
-2 -16 3 -35 11 -20 8 -40 12 -45 9 -5 -3 -11 -1 -14 4 -3 5 -18 12 -33 16
-27 6 -129 49 -208 86 -67 32 -206 126 -271 184 -35 30 -66 55 -71 56 -4 0
-47 46 -95 102 -149 175 -243 335 -306 522 -6 17 -14 39 -18 50 -4 11 -7 23
-6 27 1 4 -3 20 -9 35 -6 15 -13 43 -15 62 -3 19 -7 38 -10 43 -3 5 -8 37 -10
71 -2 34 -7 73 -10 87 -8 33 -8 173 0 235 3 28 8 70 11 95 14 140 89 373 156
490 5 8 18 31 29 50 47 82 93 152 133 200 49 60 205 213 246 244 l40 29 0
1906 c0 2066 -3 1962 51 2121 53 154 169 315 295 412 17 12 36 28 43 35 7 7
17 13 22 13 5 0 15 6 22 13 14 13 120 67 132 67 5 0 22 6 39 14 47 20 105 34
170 42 32 4 59 10 61 13 6 9 109 4 190 -9z"/>
<path d="M4495 5809 c-2 -3 -4 -282 -4 -620 0 -338 0 -765 -1 -950 l0 -336
-67 -34 c-209 -103 -350 -238 -450 -430 -33 -62 -57 -123 -54 -136 0 -2 -6
-21 -14 -44 -8 -22 -14 -43 -14 -47 1 -4 0 -9 -1 -12 -11 -23 -16 -270 -6
-325 9 -53 17 -90 23 -110 4 -11 7 -22 8 -25 5 -26 33 -95 58 -140 76 -137 63
-120 139 -204 95 -106 242 -207 373 -257 37 -14 150 -42 190 -47 89 -11 280
-3 337 14 9 3 25 7 35 9 106 23 278 115 376 202 32 29 122 127 145 158 30 41
113 195 105 195 -3 0 0 7 7 15 7 8 9 15 5 15 -4 0 -3 6 3 13 6 6 14 30 18 52
11 53 11 55 14 58 6 5 23 162 22 197 -4 132 -31 265 -71 352 -11 26 -21 49
-21 52 0 3 -21 39 -46 80 -71 117 -206 253 -309 310 -16 9 -37 21 -45 26 -8 5
-40 21 -70 35 l-55 25 0 951 c0 623 -3 953 -10 957 -12 8 -616 9 -620 1z"/>
<path d="M6667 8292 c-21 -4 -18 32 -20 -330 -2 -262 0 -305 13 -311 18 -9
921 -8 935 1 11 7 13 623 2 634 -7 7 -896 12 -930 6z"/>
<path d="M6657 7041 c-2 -3 -3 -145 -3 -316 l1 -310 455 0 c250 -1 462 1 471
3 14 3 16 36 17 300 0 163 -2 304 -4 313 -4 15 -49 16 -469 16 -256 0 -467 -2
-468 -6z"/>
<path d="M6669 5818 c-10 -4 -19 -13 -20 -20 -5 -69 -2 -613 3 -621 9 -15 937
-15 946 0 9 15 8 630 -1 640 -10 9 -902 10 -928 1z"/>
</g>
</svg>
